{"title":"Red.Widow.S01E04.HDTV.Xvid-MrX","uid":8270817,"size":394070715,"categoryP":"video","categoryS":"tv_shows","magnet":"?xt=urn:btih:35fda80076a0cc6da12a91f63245534d8ae00587&amp;dn=Red.Widow.S01E04.HDTV.Xvid-MrX&amp;tr=udp%3A%2F%2Ftracker.openbittorrent.com%3A80&amp;tr=udp%3A%2F%2Fopen.demonii.com%3A1337&amp;tr=udp%3A%2F%2Ftracker.coppersurfer.tk%3A6969&amp;tr=udp%3A%2F%2Fexodus.desync.com%3A6969","seeders":0,"leechers":1,"uploader":"D.N.M","files":3,"time":1363614666,"description":"   _____       ____  ___\n  /     ______   /  /\n /   /  _  __      /\n/    Y      | /     \n____|__  /__| /___/  \n        /           _/\n\n\nRed.Widow.S01E04.HDTV.Xvid-MrX &lt;a href=&quot;\nhttp://beta.abc.go.com/shows/red-widow&quot; rel=&quot;nofollow&quot; target=&quot;_NEW&quot;&gt;\nhttp://beta.abc.go.com/shows/red-widow&lt;/a&gt;\n\n\n\nGeneral\nComplete name                            : Red.Widow.S01E04.HDTV.Xvid-MrX.avi\nFormat                                   : AVI\nFormat/Info                              : Audio Video Interleave\nFile size                                : 375 MiB\nDuration                                 : 43mn 27s\nOverall bit rate mode                    : Variable\nOverall bit rate                         : 1 207 Kbps\n\nVideo\nID                                       : 0\nFormat                                   : MPEG-4 Visual\nFormat profile                           : Advanced Simple@L5\nFormat settings, BVOP                    : 1\nFormat settings, QPel                    : No\nFormat settings, GMC                     : No warppoints\nFormat settings, Matrix                  : Default (H.263)\nMuxing mode                              : Packed bitstream\nCodec ID                                 : XVID\nCodec ID/Hint                            : XviD\nDuration                                 : 43mn 27s\nBit rate                                 : 1 059 Kbps\nWidth                                    : 640 pixels\nHeight                                   : 352 pixels\nDisplay aspect ratio                     : 16:9\nFrame rate                               : 23.976 fps\nColor space                              : YUV\nChroma subsampling                       : 4:2:0\nBit depth                                : 8 bits\nScan type                                : Progressive\nCompression mode                         : Lossy\nBits/(Pixel*Frame)                       : 0.196\nStream size                              : 329 MiB (88%)\nWriting library                          : XviD 1.2.1 (UTC 2008-12-04)\n\nAudio\nID                                       : 1\nFormat                                   : MPEG Audio\nFormat version                           : Version 1\nFormat profile                           : Layer 3\nCodec ID                                 : 55\nCodec ID/Hint                            : MP3\nDuration                                 : 43mn 27s\nBit rate mode                            : Variable\nBit rate                                 : 135 Kbps\nMinimum bit rate                         : 32.0 Kbps\nChannel(s)                               : 2 channels\nSampling rate                            : 48.0 KHz\nCompression mode                         : Lossy\nStream size                              : 42.1 MiB (11%)\nAlignment                                : Aligned on interleaves\nInterleave, duration                     : 24 ms (0.58 video frame)\nInterleave, preload duration             : 113 ms\nTitle                                    : Red.Widow.S01E04\nWriting library                          : LAME3.99r\nEncoding settings                        : -m s -V 4 -q 0 -lowpass 17.5 --vbr-new -b 32\n","torrent":{"xt":"urn:btih:35fda80076a0cc6da12a91f63245534d8ae00587","amp;dn":"Red.Widow.S01E04.HDTV.Xvid-MrX","amp;tr":["udp%3A%2F%2Ftracker.openbittorrent.com%3A80","udp%3A%2F%2Fopen.demonii.com%3A1337","udp%3A%2F%2Ftracker.coppersurfer.tk%3A6969","udp%3A%2F%2Fexodus.desync.com%3A6969"],"infoHash":"35fda80076a0cc6da12a91f63245534d8ae00587","infoHashBuffer":{"type":"Buffer","data":[53,253,168,0,118,160,204,109,161,42,145,246,50,69,83,77,138,224,5,135]},"announce":[],"urlList":[]}}